<svg xmlns="http://www.w3.org/2000/svg" viewBox="0 0 60 84" width="60" height="84"><defs><linearGradient id="kv" x1="0" y1="0" x2="0" y2="1"><stop offset="0" stop-color="#FFF6E3"></stop><stop offset="1" stop-color="#FFE4B8"></stop></linearGradient></defs><rect x="0" y="0" width="60" height="84" rx="11" fill="url(#kv)"></rect><path d="M4 12 Q30 22 56 12" stroke="#B93424" stroke-width="1.6" fill="none"></path><path d="M8 14.6 L16 14.6 L12 22.6 Z" fill="#E14B3B"></path><path d="M18 17.4 L26 17.4 L22 25.4 Z" fill="#F0A93B"></path><path d="M28 18.2 L36 18.2 L32 26.2 Z" fill="#2F9C8F"></path><path d="M38 17.4 L46 17.4 L42 25.4 Z" fill="#8E5FC7"></path><path d="M48 14.6 L56 14.6 L52 22.6 Z" fill="#E14B3B"></path><path d="M4 72 Q30 62 56 72" stroke="#B93424" stroke-width="1.6" fill="none"></path><path d="M8 69.4 L16 69.4 L12 61.400000000000006 Z" fill="#2F9C8F"></path><path d="M18 66.6 L26 66.6 L22 58.599999999999994 Z" fill="#E14B3B"></path><path d="M28 65.8 L36 65.8 L32 57.8 Z" fill="#F0A93B"></path><path d="M38 66.6 L46 66.6 L42 58.599999999999994 Z" fill="#8E5FC7"></path><path d="M48 69.4 L56 69.4 L52 61.400000000000006 Z" fill="#E14B3B"></path><path d="M30 35 C31.54 40.46 31.54 40.46 37 42 C31.54 43.54 31.54 43.54 30 49 C28.46 43.54 28.46 43.54 23 42 C28.46 40.46 28.46 40.46 30 35 Z" fill="#E14B3B"></path><path d="M16 37 C16.66 39.34 16.66 39.34 19 40 C16.66 40.66 16.66 40.66 16 43 C15.34 40.66 15.34 40.66 13 40 C15.34 39.34 15.34 39.34 16 37 Z" fill="#F0A93B"></path><path d="M44 41 C44.66 43.34 44.66 43.34 47 44 C44.66 44.66 44.66 44.66 44 47 C43.34 44.66 43.34 44.66 41 44 C43.34 43.34 43.34 43.34 44 41 Z" fill="#2F9C8F"></path><circle cx="20" cy="50" r="1.5" fill="#8E5FC7"></circle><circle cx="40" cy="34" r="1.5" fill="#F0A93B"></circle><rect x="2" y="2" width="56" height="80" rx="9" fill="none" stroke="#B93424" stroke-width="3"></rect></svg>