<svg xmlns="http://www.w3.org/2000/svg" viewBox="0 0 60 84" width="60" height="84"><defs><linearGradient id="kl" x1="0" y1="0" x2="0" y2="1"><stop offset="0" stop-color="#FFFDF8"></stop><stop offset="1" stop-color="#FFF0D8"></stop></linearGradient></defs><rect x="0" y="0" width="60" height="84" rx="11" fill="url(#kl)"></rect><rect x="7.5" y="7.5" width="45" height="69" rx="6" fill="none" stroke="#F0A93B" stroke-width="1.4" stroke-dasharray="3 3.4"></rect><circle cx="30" cy="42" r="12.5" fill="#E14B3B"></circle><circle cx="30" cy="42" r="12.5" fill="none" stroke="#B93424" stroke-width="1.6"></circle><rect x="24.6" y="35.5" width="3.4" height="13" rx="1.7" fill="#FFF6E8"></rect><rect x="32" y="35.5" width="3.4" height="13" rx="1.7" fill="#FFF6E8"></rect><rect x="26.5" y="40.3" width="7" height="3.4" rx="1.7" fill="#FFF6E8"></rect><path d="M14 12 C14.66 14.34 14.66 14.34 17 15 C14.66 15.66 14.66 15.66 14 18 C13.34 15.66 13.34 15.66 11 15 C13.34 14.34 13.34 14.34 14 12 Z" fill="#F0A93B"></path><path d="M46 66 C46.66 68.34 46.66 68.34 49 69 C46.66 69.66 46.66 69.66 46 72 C45.34 69.66 45.34 69.66 43 69 C45.34 68.34 45.34 68.34 46 66 Z" fill="#F0A93B"></path><rect x="2" y="2" width="56" height="80" rx="9" fill="none" stroke="#E14B3B" stroke-width="3"></rect></svg>