<svg xmlns="http://www.w3.org/2000/svg" viewBox="0 0 60 84" width="60" height="84"><defs><linearGradient id="nz" x1="0" y1="0" x2="0" y2="1"><stop offset="0" stop-color="#16337A"></stop><stop offset="1" stop-color="#0D2158"></stop></linearGradient></defs><rect x="0" y="0" width="60" height="84" rx="11" fill="url(#nz)"></rect><circle cx="30" cy="42" r="15" fill="#1C4FB0"></circle><circle cx="30" cy="42" r="10.799999999999999" fill="#FFFFFF"></circle><circle cx="30" cy="42" r="6.9" fill="#7EC8E3"></circle><circle cx="30" cy="42" r="3" fill="#12224E"></circle><circle cx="13" cy="13" r="5.5" fill="#1C4FB0"></circle><circle cx="13" cy="13" r="3.96" fill="#FFFFFF"></circle><circle cx="13" cy="13" r="2.5300000000000002" fill="#7EC8E3"></circle><circle cx="13" cy="13" r="1.1" fill="#12224E"></circle><circle cx="47" cy="13" r="5.5" fill="#1C4FB0"></circle><circle cx="47" cy="13" r="3.96" fill="#FFFFFF"></circle><circle cx="47" cy="13" r="2.5300000000000002" fill="#7EC8E3"></circle><circle cx="47" cy="13" r="1.1" fill="#12224E"></circle><circle cx="13" cy="71" r="5.5" fill="#1C4FB0"></circle><circle cx="13" cy="71" r="3.96" fill="#FFFFFF"></circle><circle cx="13" cy="71" r="2.5300000000000002" fill="#7EC8E3"></circle><circle cx="13" cy="71" r="1.1" fill="#12224E"></circle><circle cx="47" cy="71" r="5.5" fill="#1C4FB0"></circle><circle cx="47" cy="71" r="3.96" fill="#FFFFFF"></circle><circle cx="47" cy="71" r="2.5300000000000002" fill="#7EC8E3"></circle><circle cx="47" cy="71" r="1.1" fill="#12224E"></circle><path d="M30 12.4 C30.572 14.428 30.572 14.428 32.6 15 C30.572 15.572 30.572 15.572 30 17.6 C29.428 15.572 29.428 15.572 27.4 15 C29.428 14.428 29.428 14.428 30 12.4 Z" fill="#7EC8E3"></path><path d="M30 66.4 C30.572 68.428 30.572 68.428 32.6 69 C30.572 69.572 30.572 69.572 30 71.6 C29.428 69.572 29.428 69.572 27.4 69 C29.428 68.428 29.428 68.428 30 66.4 Z" fill="#7EC8E3"></path><path d="M10 39.8 C10.484 41.516 10.484 41.516 12.2 42 C10.484 42.484 10.484 42.484 10 44.2 C9.516 42.484 9.516 42.484 7.8 42 C9.516 41.516 9.516 41.516 10 39.8 Z" fill="#7EC8E3" opacity="0.7"></path><path d="M50 39.8 C50.484 41.516 50.484 41.516 52.2 42 C50.484 42.484 50.484 42.484 50 44.2 C49.516 42.484 49.516 42.484 47.8 42 C49.516 41.516 49.516 41.516 50 39.8 Z" fill="#7EC8E3" opacity="0.7"></path><rect x="2" y="2" width="56" height="80" rx="9" fill="none" stroke="#7EC8E3" stroke-width="3"></rect></svg>