<svg xmlns="http://www.w3.org/2000/svg" viewBox="0 0 60 84" width="60" height="84"><defs><linearGradient id="pt" x1="0" y1="0" x2="0" y2="1"><stop offset="0" stop-color="#FFCE58"></stop><stop offset="1" stop-color="#F0A93B"></stop></linearGradient></defs><rect x="0" y="0" width="60" height="84" rx="11" fill="url(#pt)"></rect><path d="M15.5 6.8 L15.5 13.2 L10.0 16.4 L4.5 13.2 L4.5 6.8 L10.0 3.6 Z" fill="none" stroke="#C97F1E" stroke-width="1.6"></path><path d="M35.5 6.8 L35.5 13.2 L30.0 16.4 L24.5 13.2 L24.5 6.8 L30.0 3.6 Z" fill="none" stroke="#C97F1E" stroke-width="1.6"></path><path d="M55.5 6.8 L55.5 13.2 L50.0 16.4 L44.5 13.2 L44.5 6.8 L50.0 3.6 Z" fill="none" stroke="#C97F1E" stroke-width="1.6"></path><path d="M15.5 38.8 L15.5 45.2 L10.0 48.4 L4.5 45.2 L4.5 38.8 L10.0 35.6 Z" fill="none" stroke="#C97F1E" stroke-width="1.6"></path><path d="M35.5 38.8 L35.5 45.2 L30.0 48.4 L24.5 45.2 L24.5 38.8 L30.0 35.6 Z" fill="none" stroke="#C97F1E" stroke-width="1.6"></path><path d="M55.5 38.8 L55.5 45.2 L50.0 48.4 L44.5 45.2 L44.5 38.8 L50.0 35.6 Z" fill="none" stroke="#C97F1E" stroke-width="1.6"></path><path d="M15.5 70.8 L15.5 77.2 L10.0 80.4 L4.5 77.2 L4.5 70.8 L10.0 67.6 Z" fill="none" stroke="#C97F1E" stroke-width="1.6"></path><path d="M35.5 70.8 L35.5 77.2 L30.0 80.4 L24.5 77.2 L24.5 70.8 L30.0 67.6 Z" fill="none" stroke="#C97F1E" stroke-width="1.6"></path><path d="M55.5 70.8 L55.5 77.2 L50.0 80.4 L44.5 77.2 L44.5 70.8 L50.0 67.6 Z" fill="none" stroke="#C97F1E" stroke-width="1.6"></path><path d="M25.5 22.8 L25.5 29.2 L20.0 32.4 L14.5 29.2 L14.5 22.8 L20.0 19.6 Z" fill="none" stroke="#C97F1E" stroke-width="1.6"></path><path d="M45.5 22.8 L45.5 29.2 L40.0 32.4 L34.5 29.2 L34.5 22.8 L40.0 19.6 Z" fill="none" stroke="#C97F1E" stroke-width="1.6"></path><path d="M5.5 22.8 L5.5 29.2 L0.0 32.4 L-5.5 29.2 L-5.5 22.8 L-0.0 19.6 Z" fill="none" stroke="#C97F1E" stroke-width="1.6"></path><path d="M65.5 22.8 L65.5 29.2 L60.0 32.4 L54.5 29.2 L54.5 22.8 L60.0 19.6 Z" fill="none" stroke="#C97F1E" stroke-width="1.6"></path><path d="M25.5 54.8 L25.5 61.2 L20.0 64.4 L14.5 61.2 L14.5 54.8 L20.0 51.6 Z" fill="none" stroke="#C97F1E" stroke-width="1.6"></path><path d="M45.5 54.8 L45.5 61.2 L40.0 64.4 L34.5 61.2 L34.5 54.8 L40.0 51.6 Z" fill="none" stroke="#C97F1E" stroke-width="1.6"></path><path d="M5.5 54.8 L5.5 61.2 L0.0 64.4 L-5.5 61.2 L-5.5 54.8 L-0.0 51.6 Z" fill="none" stroke="#C97F1E" stroke-width="1.6"></path><path d="M65.5 54.8 L65.5 61.2 L60.0 64.4 L54.5 61.2 L54.5 54.8 L60.0 51.6 Z" fill="none" stroke="#C97F1E" stroke-width="1.6"></path><path d="M35.5 38.8 L35.5 45.2 L30.0 48.4 L24.5 45.2 L24.5 38.8 L30.0 35.6 Z" fill="#FFF3C4" stroke="#C97F1E" stroke-width="2"></path><circle cx="30" cy="41" r="2.6" fill="#E8A61E"></circle><path d="M30 44 C30 46 30 47.5 30 49" stroke="#E8A61E" stroke-width="1.8" stroke-linecap="round"></path><rect x="2" y="2" width="56" height="80" rx="9" fill="none" stroke="#B96F12" stroke-width="3"></rect></svg>