<svg xmlns="http://www.w3.org/2000/svg" viewBox="0 0 60 84" width="60" height="84"><defs><linearGradient id="tt" x1="0" y1="0" x2="0" y2="1"><stop offset="0" stop-color="#FFFDF6"></stop><stop offset="1" stop-color="#FFF3DC"></stop></linearGradient></defs><rect x="0" y="0" width="60" height="84" rx="11" fill="url(#tt)"></rect><circle cx="12" cy="13" r="2" fill="#E14B3B"></circle><path d="M28 7.6 L30.2 11.6 L25.8 11.6 Z" fill="#2F9C8F" transform="rotate(12 28 10)"></path><circle cx="44" cy="15" r="2" fill="#8E5FC7"></circle><rect x="50" y="24" width="4" height="4" rx="1.2" fill="#F0A93B" transform="rotate(-14 52 26)"></rect><rect x="7" y="26" width="4" height="4" rx="1.2" fill="#2F9C8F" transform="rotate(18 9 28)"></rect><circle cx="22" cy="24" r="2" fill="#F0A93B"></circle><path d="M37 23.6 L39.2 27.6 L34.8 27.6 Z" fill="#2F9C8F" transform="rotate(-20 37 26)"></path><circle cx="50" cy="40" r="2" fill="#E14B3B"></circle><path d="M14 39.6 L16.2 43.6 L11.8 43.6 Z" fill="#2F9C8F" transform="rotate(8 14 42)"></path><rect x="26" y="36" width="4" height="4" rx="1.2" fill="#E14B3B" transform="rotate(30 28 38)"></rect><circle cx="40" cy="34" r="2" fill="#2F9C8F"></circle><circle cx="10" cy="56" r="2" fill="#F0A93B"></circle><path d="M24 49.6 L26.2 53.6 L21.8 53.6 Z" fill="#2F9C8F" transform="rotate(-12 24 52)"></path><circle cx="36" cy="50" r="2" fill="#8E5FC7"></circle><rect x="46" y="52" width="4" height="4" rx="1.2" fill="#2F9C8F" transform="rotate(12 48 54)"></rect><rect x="14" y="66" width="4" height="4" rx="1.2" fill="#8E5FC7" transform="rotate(-22 16 68)"></rect><circle cx="30" cy="64" r="2" fill="#E14B3B"></circle><path d="M44 63.6 L46.2 67.6 L41.8 67.6 Z" fill="#2F9C8F" transform="rotate(16 44 66)"></path><circle cx="52" cy="74" r="2" fill="#F0A93B"></circle><circle cx="22" cy="76" r="2" fill="#2F9C8F"></circle><path d="M36 73.6 L38.2 77.6 L33.8 77.6 Z" fill="#2F9C8F" transform="rotate(0 36 76)"></path><rect x="2" y="2" width="56" height="80" rx="9" fill="none" stroke="#F0A93B" stroke-width="3"></rect></svg>