<svg xmlns="http://www.w3.org/2000/svg" viewBox="0 0 48 48" width="48" height="48"><path d="M5.5 19 A18.5 18.5 0 0 0 42.5 19 Z" fill="#3F8F4F"></path><path d="M6.4 19 A17.6 17.6 0 0 0 41.6 19" stroke="#2F7A3E" stroke-width="2.6" fill="none" stroke-dasharray="4.5 6.5"></path><path d="M9 19 A15 15 0 0 0 39 19 Z" fill="#EFF7E3"></path><path d="M11.2 19 A12.8 12.8 0 0 0 36.8 19 Z" fill="#F0455C"></path><path d="M14 23.5 A10.4 10.4 0 0 0 19.5 29.3" stroke="#FF8CA0" stroke-width="2.4" fill="none" stroke-linecap="round" opacity=".85"></path><path d="M0 -2.4 C1.4 -0.7 1.2 1.3 0 2.4 C-1.2 1.3 -1.4 -0.7 0 -2.4 Z" fill="#35241B" transform="translate(17.5,23) rotate(-20)"></path><path d="M0 -2.4 C1.4 -0.7 1.2 1.3 0 2.4 C-1.2 1.3 -1.4 -0.7 0 -2.4 Z" fill="#35241B" transform="translate(24.5,26.5) rotate(0)"></path><path d="M0 -2.4 C1.4 -0.7 1.2 1.3 0 2.4 C-1.2 1.3 -1.4 -0.7 0 -2.4 Z" fill="#35241B" transform="translate(31,23) rotate(20)"></path></svg>