<svg xmlns="http://www.w3.org/2000/svg" viewBox="0 0 60 84" width="60" height="84"><defs><linearGradient id="al" x1="0" y1="0" x2="0" y2="1"><stop offset="0" stop-color="#FFE9A8"></stop><stop offset="1" stop-color="#E8B93B"></stop></linearGradient></defs><rect x="0" y="0" width="60" height="84" rx="11" fill="url(#al)"></rect><path d="M-36 0 L6 84" stroke="#C9962A" stroke-width="1" opacity=".45"></path><path d="M6 0 L-36 84" stroke="#C9962A" stroke-width="1" opacity=".45"></path><path d="M-22 0 L20 84" stroke="#C9962A" stroke-width="1" opacity=".45"></path><path d="M20 0 L-22 84" stroke="#C9962A" stroke-width="1" opacity=".45"></path><path d="M-8 0 L34 84" stroke="#C9962A" stroke-width="1" opacity=".45"></path><path d="M34 0 L-8 84" stroke="#C9962A" stroke-width="1" opacity=".45"></path><path d="M6 0 L48 84" stroke="#C9962A" stroke-width="1" opacity=".45"></path><path d="M48 0 L6 84" stroke="#C9962A" stroke-width="1" opacity=".45"></path><path d="M20 0 L62 84" stroke="#C9962A" stroke-width="1" opacity=".45"></path><path d="M62 0 L20 84" stroke="#C9962A" stroke-width="1" opacity=".45"></path><path d="M34 0 L76 84" stroke="#C9962A" stroke-width="1" opacity=".45"></path><path d="M76 0 L34 84" stroke="#C9962A" stroke-width="1" opacity=".45"></path><path d="M48 0 L90 84" stroke="#C9962A" stroke-width="1" opacity=".45"></path><path d="M90 0 L48 84" stroke="#C9962A" stroke-width="1" opacity=".45"></path><path d="M62 0 L104 84" stroke="#C9962A" stroke-width="1" opacity=".45"></path><path d="M104 0 L62 84" stroke="#C9962A" stroke-width="1" opacity=".45"></path><path d="M76 0 L118 84" stroke="#C9962A" stroke-width="1" opacity=".45"></path><path d="M118 0 L76 84" stroke="#C9962A" stroke-width="1" opacity=".45"></path><path d="M90 0 L132 84" stroke="#C9962A" stroke-width="1" opacity=".45"></path><path d="M132 0 L90 84" stroke="#C9962A" stroke-width="1" opacity=".45"></path><circle cx="30" cy="42" r="13.5" fill="#FFF3C4"></circle><circle cx="30" cy="42" r="13.5" fill="none" stroke="#B8860B" stroke-width="2"></circle><circle cx="30" cy="42" r="9.5" fill="none" stroke="#C9962A" stroke-width="1.2" stroke-dasharray="2.2 2.4"></circle><path d="M30 36 C31.32 40.68 31.32 40.68 36 42 C31.32 43.32 31.32 43.32 30 48 C28.68 43.32 28.68 43.32 24 42 C28.68 40.68 28.68 40.68 30 36 Z" fill="#C9962A"></path><path d="M30 11.4 C30.572 13.428 30.572 13.428 32.6 14 C30.572 14.572 30.572 14.572 30 16.6 C29.428 14.572 29.428 14.572 27.4 14 C29.428 13.428 29.428 13.428 30 11.4 Z" fill="#B8860B"></path><path d="M30 67.4 C30.572 69.428 30.572 69.428 32.6 70 C30.572 70.572 30.572 70.572 30 72.6 C29.428 70.572 29.428 70.572 27.4 70 C29.428 69.428 29.428 69.428 30 67.4 Z" fill="#B8860B"></path><rect x="2" y="2" width="56" height="80" rx="9" fill="none" stroke="#B8860B" stroke-width="3"></rect></svg>