<svg xmlns="http://www.w3.org/2000/svg" viewBox="0 0 60 84" width="60" height="84"><defs><linearGradient id="cl" x1="0" y1="0" x2="0" y2="1"><stop offset="0" stop-color="#FF7A92"></stop><stop offset="1" stop-color="#EF4059"></stop></linearGradient></defs><rect x="0" y="0" width="60" height="84" rx="11" fill="url(#cl)"></rect><ellipse cx="12" cy="14" rx="1.15" ry="1.7" fill="#FFE9A8" transform="rotate(-14 12 14)"></ellipse><ellipse cx="30" cy="11" rx="1.15" ry="1.7" fill="#FFE9A8" transform="rotate(0 30 11)"></ellipse><ellipse cx="48" cy="14" rx="1.15" ry="1.7" fill="#FFE9A8" transform="rotate(14 48 14)"></ellipse><ellipse cx="20" cy="24" rx="1.15" ry="1.7" fill="#FFE9A8" transform="rotate(8 20 24)"></ellipse><ellipse cx="40" cy="24" rx="1.15" ry="1.7" fill="#FFE9A8" transform="rotate(-8 40 24)"></ellipse><ellipse cx="10" cy="36" rx="1.15" ry="1.7" fill="#FFE9A8" transform="rotate(-10 10 36)"></ellipse><ellipse cx="30" cy="32" rx="1.15" ry="1.7" fill="#FFE9A8" transform="rotate(0 30 32)"></ellipse><ellipse cx="50" cy="36" rx="1.15" ry="1.7" fill="#FFE9A8" transform="rotate(10 50 36)"></ellipse><ellipse cx="20" cy="46" rx="1.15" ry="1.7" fill="#FFE9A8" transform="rotate(10 20 46)"></ellipse><ellipse cx="40" cy="46" rx="1.15" ry="1.7" fill="#FFE9A8" transform="rotate(-10 40 46)"></ellipse><ellipse cx="12" cy="58" rx="1.15" ry="1.7" fill="#FFE9A8" transform="rotate(-12 12 58)"></ellipse><ellipse cx="30" cy="54" rx="1.15" ry="1.7" fill="#FFE9A8" transform="rotate(0 30 54)"></ellipse><ellipse cx="48" cy="58" rx="1.15" ry="1.7" fill="#FFE9A8" transform="rotate(12 48 58)"></ellipse><ellipse cx="20" cy="68" rx="1.15" ry="1.7" fill="#FFE9A8" transform="rotate(8 20 68)"></ellipse><ellipse cx="40" cy="68" rx="1.15" ry="1.7" fill="#FFE9A8" transform="rotate(-8 40 68)"></ellipse><ellipse cx="30" cy="76" rx="1.15" ry="1.7" fill="#FFE9A8" transform="rotate(0 30 76)"></ellipse><path d="M30 42 C25.5 38.6 20.8 38.8 18.6 41.8 C22.6 43.6 26.6 43.8 30 42 Z" fill="#5FA84C"></path><path d="M30 42 C34.5 38.6 39.2 38.8 41.4 41.8 C37.4 43.6 33.4 43.8 30 42 Z" fill="#4C8C3B"></path><rect x="2" y="2" width="56" height="80" rx="9" fill="none" stroke="#C42B47" stroke-width="3"></rect></svg>