<svg xmlns="http://www.w3.org/2000/svg" viewBox="0 0 60 84" width="60" height="84"><defs><linearGradient id="el" x1="0" y1="0" x2="0" y2="1"><stop offset="0" stop-color="#EAF8FD"></stop><stop offset="1" stop-color="#C4EBF7"></stop></linearGradient></defs><rect x="0" y="0" width="60" height="84" rx="11" fill="url(#el)"></rect><path d="M0 22 L18 8 L42 36 Z" fill="#D9F2FA" opacity=".8"></path><path d="M60 18 L38 30 L60 48 Z" fill="#AEE2F2" opacity=".7"></path><path d="M0 58 L26 48 L14 84 Z" fill="#AEE2F2" opacity=".6"></path><path d="M60 62 L36 58 L52 84 Z" fill="#D9F2FA" opacity=".8"></path><path d="M18 34 L42 34 L30 40 Z" fill="#8FD0E8"></path><path d="M18 34 L30 40 L30 58 Z" fill="#5FB9D8"></path><path d="M42 34 L30 40 L30 58 Z" fill="#7EC8E3"></path><path d="M18 34 L30 58 L21 41 Z" fill="#4FA0CC" opacity=".9"></path><path d="M22 30 L26 26 L34 26 L38 30 L42 34 L18 34 Z" fill="#BFE9F5"></path><path d="M18 34 L30 58 L42 34 L30 40 Z" fill="none" stroke="#3E88B0" stroke-width="1"></path><path d="M22 30 L26 26 L34 26 L38 30 L42 34 L18 34 Z" fill="none" stroke="#3E88B0" stroke-width="1"></path><path d="M14 13.4 C14.572 15.428 14.572 15.428 16.6 16 C14.572 16.572 14.572 16.572 14 18.6 C13.428 16.572 13.428 16.572 11.4 16 C13.428 15.428 13.428 15.428 14 13.4 Z" fill="#FFF"></path><path d="M46 65.4 C46.572 67.428 46.572 67.428 48.6 68 C46.572 68.572 46.572 68.572 46 70.6 C45.428 68.572 45.428 68.572 43.4 68 C45.428 67.428 45.428 67.428 46 65.4 Z" fill="#FFF"></path><path d="M44 12.2 C44.396 13.604 44.396 13.604 45.8 14 C44.396 14.396 44.396 14.396 44 15.8 C43.604 14.396 43.604 14.396 42.2 14 C43.604 13.604 43.604 13.604 44 12.2 Z" fill="#FFF" opacity="0.8"></path><rect x="2" y="2" width="56" height="80" rx="9" fill="none" stroke="#5FB9D8" stroke-width="3"></rect></svg>