<svg xmlns="http://www.w3.org/2000/svg" viewBox="0 0 60 84" width="60" height="84"><defs><linearGradient id="gc" x1="0" y1="0" x2="0" y2="1"><stop offset="0" stop-color="#25335F"></stop><stop offset="1" stop-color="#131B3C"></stop></linearGradient></defs><rect x="0" y="0" width="60" height="84" rx="11" fill="url(#gc)"></rect><circle cx="30" cy="36" r="12" fill="#F0C96B"></circle><circle cx="35" cy="32.5" r="10.4" fill="#1B2549"></circle><path d="M14 11.6 C14.748 14.252 14.748 14.252 17.4 15 C14.748 15.748 14.748 15.748 14 18.4 C13.252 15.748 13.252 15.748 10.6 15 C13.252 14.252 13.252 14.252 14 11.6 Z" fill="#F5E6C8"></path><path d="M46 17.6 C46.528 19.472 46.528 19.472 48.4 20 C46.528 20.528 46.528 20.528 46 22.4 C45.472 20.528 45.472 20.528 43.6 20 C45.472 19.472 45.472 19.472 46 17.6 Z" fill="#F0C96B"></path><path d="M12 47.8 C12.484 49.516 12.484 49.516 14.2 50 C12.484 50.484 12.484 50.484 12 52.2 C11.516 50.484 11.516 50.484 9.8 50 C11.516 49.516 11.516 49.516 12 47.8 Z" fill="#F0C96B"></path><path d="M47 45 C47.66 47.34 47.66 47.34 50 48 C47.66 48.66 47.66 48.66 47 51 C46.34 48.66 46.34 48.66 44 48 C46.34 47.34 46.34 47.34 47 45 Z" fill="#F5E6C8"></path><path d="M22 61.4 C22.572 63.428 22.572 63.428 24.6 64 C22.572 64.572 22.572 64.572 22 66.6 C21.428 64.572 21.428 64.572 19.4 64 C21.428 63.428 21.428 63.428 22 61.4 Z" fill="#F0C96B"></path><path d="M40 66.6 C40.748 69.252 40.748 69.252 43.4 70 C40.748 70.748 40.748 70.748 40 73.4 C39.252 70.748 39.252 70.748 36.6 70 C39.252 69.252 39.252 69.252 40 66.6 Z" fill="#F5E6C8"></path><circle cx="24" cy="22" r="1.1" fill="#F5E6C8" opacity=".8"></circle><circle cx="50" cy="34" r="1.1" fill="#F5E6C8" opacity=".7"></circle><circle cx="14" cy="70" r="1.1" fill="#F5E6C8" opacity=".7"></circle><circle cx="30" cy="56" r="1.1" fill="#F0C96B" opacity=".8"></circle><rect x="2" y="2" width="56" height="80" rx="9" fill="none" stroke="#F0C96B" stroke-width="3"></rect></svg>