<svg xmlns="http://www.w3.org/2000/svg" viewBox="0 0 60 84" width="60" height="84"><rect x="0" y="0" width="60" height="84" rx="11" fill="#3F8F4F"></rect><rect x="4.5" y="4.5" width="51" height="75" rx="8" fill="none" stroke="#2F7A3E" stroke-width="3" stroke-dasharray="6 5"></rect><rect x="8" y="8" width="44" height="68" rx="6.5" fill="#EFF7E3"></rect><rect x="11" y="11" width="38" height="62" rx="5" fill="#F0455C"></rect><path d="M14 20 C15 15.5 18 13 22 12.5" stroke="#FF8CA0" stroke-width="2.4" fill="none" stroke-linecap="round" opacity=".9"></path><path d="M0 -2.2 C1.3 -0.6 1.1 1.2 0 2.2 C-1.1 1.2 -1.3 -0.6 0 -2.2 Z" fill="#35241B" transform="translate(21,26) rotate(-15)"></path><path d="M0 -2.2 C1.3 -0.6 1.1 1.2 0 2.2 C-1.1 1.2 -1.3 -0.6 0 -2.2 Z" fill="#35241B" transform="translate(35,22) rotate(15)"></path><path d="M0 -2.2 C1.3 -0.6 1.1 1.2 0 2.2 C-1.1 1.2 -1.3 -0.6 0 -2.2 Z" fill="#35241B" transform="translate(28,36) rotate(0)"></path><path d="M0 -2.2 C1.3 -0.6 1.1 1.2 0 2.2 C-1.1 1.2 -1.3 -0.6 0 -2.2 Z" fill="#35241B" transform="translate(18,44) rotate(12)"></path><path d="M0 -2.2 C1.3 -0.6 1.1 1.2 0 2.2 C-1.1 1.2 -1.3 -0.6 0 -2.2 Z" fill="#35241B" transform="translate(39,46) rotate(-12)"></path><path d="M0 -2.2 C1.3 -0.6 1.1 1.2 0 2.2 C-1.1 1.2 -1.3 -0.6 0 -2.2 Z" fill="#35241B" transform="translate(24,56) rotate(-18)"></path><path d="M0 -2.2 C1.3 -0.6 1.1 1.2 0 2.2 C-1.1 1.2 -1.3 -0.6 0 -2.2 Z" fill="#35241B" transform="translate(35,62) rotate(10)"></path><path d="M0 -2.2 C1.3 -0.6 1.1 1.2 0 2.2 C-1.1 1.2 -1.3 -0.6 0 -2.2 Z" fill="#35241B" transform="translate(19,64) rotate(0)"></path><path d="M0 -2.2 C1.3 -0.6 1.1 1.2 0 2.2 C-1.1 1.2 -1.3 -0.6 0 -2.2 Z" fill="#35241B" transform="translate(40,33) rotate(0)"></path><rect x="2" y="2" width="56" height="80" rx="9" fill="none" stroke="#2F7A3E" stroke-width="3"></rect></svg>