<svg xmlns="http://www.w3.org/2000/svg" viewBox="0 0 60 84" width="60" height="84"><rect x="0" y="0" width="60" height="84" rx="11" fill="#C75B3A"></rect><path d="M6 13 L14 18 L22 13 L30 18 L38 13 L46 18 L54 13" stroke="#F5E6C8" stroke-width="1.8" fill="none"></path><path d="M6 29 L14 24 L22 29 L30 24 L38 29 L46 24 L54 29" stroke="#F5E6C8" stroke-width="1.8" fill="none"></path><path d="M6 55 L14 60 L22 55 L30 60 L38 55 L46 60 L54 55" stroke="#F5E6C8" stroke-width="1.8" fill="none"></path><path d="M6 71 L14 66 L22 71 L30 66 L38 71 L46 66 L54 71" stroke="#F5E6C8" stroke-width="1.8" fill="none"></path><path d="M30 25 L43 42 L30 59 L17 42 Z" fill="#F5E6C8"></path><path d="M30 30 L39 42 L30 54 L21 42 Z" fill="#2F7A6B"></path><path d="M30 35 L35 42 L30 49 L25 42 Z" fill="#E8A61E"></path><path d="M30 39 L32.2 42 L30 45 L27.8 42 Z" fill="#7A3020"></path><path d="M12 36.5 L16 42 L12 47.5 L8 42 Z" fill="#F5E6C8"></path><path d="M48 36.5 L52 42 L48 47.5 L44 42 Z" fill="#F5E6C8"></path><path d="M12 39.4 L13.8 42 L12 44.6 L10.2 42 Z" fill="#7A3020"></path><path d="M48 39.4 L49.8 42 L48 44.6 L46.2 42 Z" fill="#7A3020"></path><path d="M21 17 L24 21 L21 25 L18 21 Z" fill="#E8A61E"></path><path d="M39 17 L42 21 L39 25 L36 21 Z" fill="#2F9C8F"></path><path d="M21 59 L24 63 L21 67 L18 63 Z" fill="#2F9C8F"></path><path d="M39 59 L42 63 L39 67 L36 63 Z" fill="#E8A61E"></path><rect x="2" y="2" width="56" height="80" rx="9" fill="none" stroke="#7A3020" stroke-width="3"></rect></svg>