<svg xmlns="http://www.w3.org/2000/svg" viewBox="0 0 60 84" width="60" height="84"><defs><linearGradient id="lm" x1="0" y1="0" x2="0" y2="1"><stop offset="0" stop-color="#FFFBE0"></stop><stop offset="1" stop-color="#FFF0B8"></stop></linearGradient></defs><rect x="0" y="0" width="60" height="84" rx="11" fill="url(#lm)"></rect><circle cx="30" cy="38" r="16.5" fill="#FFD93D"></circle><circle cx="30" cy="38" r="16.5" fill="none" stroke="#E8B93B" stroke-width="1.6"></circle><circle cx="30" cy="38" r="13" fill="#FFF3B0"></circle><path d="M17.5 38 L42.5 38" stroke="#FFD93D" stroke-width="2.6" transform="rotate(0 30 38)"></path><path d="M17.5 38 L42.5 38" stroke="#FFD93D" stroke-width="2.6" transform="rotate(45 30 38)"></path><path d="M17.5 38 L42.5 38" stroke="#FFD93D" stroke-width="2.6" transform="rotate(90 30 38)"></path><path d="M17.5 38 L42.5 38" stroke="#FFD93D" stroke-width="2.6" transform="rotate(135 30 38)"></path><circle cx="30" cy="38" r="2.8" fill="#FFD93D"></circle><circle cx="13" cy="62" r="2.4" fill="#FFD93D"></circle><circle cx="21" cy="70" r="3.2" fill="#FFE47A"></circle><circle cx="32" cy="65" r="2" fill="#FFD93D"></circle><circle cx="43" cy="70" r="2.8" fill="#FFE47A"></circle><circle cx="48" cy="60" r="1.8" fill="#FFD93D"></circle><ellipse cx="42" cy="16" rx="6.4" ry="3.4" fill="#5FA84C" transform="rotate(-24 42 16)"></ellipse><rect x="2" y="2" width="56" height="80" rx="9" fill="none" stroke="#E8B93B" stroke-width="3"></rect></svg>