<svg xmlns="http://www.w3.org/2000/svg" viewBox="0 0 60 84" width="60" height="84"><defs><linearGradient id="uy" x1="0" y1="0" x2="0" y2="1"><stop offset="0" stop-color="#B9AEE8"></stop><stop offset="1" stop-color="#8E7DD1"></stop></linearGradient></defs><rect x="0" y="0" width="60" height="84" rx="11" fill="url(#uy)"></rect><ellipse cx="30" cy="48" rx="16" ry="10.5" fill="#FFF9EE"></ellipse><circle cx="19" cy="44" r="6.5" fill="#FFF9EE"></circle><circle cx="30" cy="41" r="8" fill="#FFF9EE"></circle><circle cx="41" cy="44.5" r="6" fill="#FFF9EE"></circle><path d="M24 48 Q26 50.4 28 48" stroke="#6C5AB8" stroke-width="1.8" fill="none" stroke-linecap="round"></path><path d="M33 48 Q35 50.4 37 48" stroke="#6C5AB8" stroke-width="1.8" fill="none" stroke-linecap="round"></path><path d="M28.5 53.5 Q30 54.8 31.5 53.5" stroke="#6C5AB8" stroke-width="1.6" fill="none" stroke-linecap="round"></path><circle cx="22.5" cy="51.5" r="1.6" fill="#F2A3B3" opacity=".75"></circle><circle cx="38.5" cy="51.5" r="1.6" fill="#F2A3B3" opacity=".75"></circle><path d="M36 24 h5 l-5 5 h5" stroke="#FFF" stroke-width="2" fill="none" stroke-linecap="round" stroke-linejoin="round" opacity=".95"></path><path d="M43 16 h4 l-4 4 h4" stroke="#FFF" stroke-width="2" fill="none" stroke-linecap="round" stroke-linejoin="round" opacity=".7"></path><path d="M48.5 10 h3 l-3 3 h3" stroke="#FFF" stroke-width="2" fill="none" stroke-linecap="round" stroke-linejoin="round" opacity=".5"></path><path d="M13 15.6 C13.528 17.472 13.528 17.472 15.4 18 C13.528 18.528 13.528 18.528 13 20.4 C12.472 18.528 12.472 18.528 10.6 18 C12.472 17.472 12.472 17.472 13 15.6 Z" fill="#FFF" opacity="0.6"></path><path d="M18 65.6 C18.528 67.472 18.528 67.472 20.4 68 C18.528 68.528 18.528 68.528 18 70.4 C17.472 68.528 17.472 68.528 15.6 68 C17.472 67.472 17.472 67.472 18 65.6 Z" fill="#FFF" opacity="0.6"></path><path d="M46 62 C46.44 63.56 46.44 63.56 48 64 C46.44 64.44 46.44 64.44 46 66 C45.56 64.44 45.56 64.44 44 64 C45.56 63.56 45.56 63.56 46 62 Z" fill="#FFF" opacity="0.5"></path><rect x="2" y="2" width="56" height="80" rx="9" fill="none" stroke="#6C5AB8" stroke-width="3"></rect></svg>