<svg xmlns="http://www.w3.org/2000/svg" viewBox="0 0 60 84" width="60" height="84"><defs><linearGradient id="yt" x1="0" y1="0" x2="0" y2="1"><stop offset="0" stop-color="#453471"></stop><stop offset="1" stop-color="#211840"></stop></linearGradient></defs><rect x="0" y="0" width="60" height="84" rx="11" fill="url(#yt)"></rect><path d="M30 31 C31.98 38.02 31.98 38.02 39 40 C31.98 41.98 31.98 41.98 30 49 C28.02 41.98 28.02 41.98 21 40 C28.02 38.02 28.02 38.02 30 31 Z" fill="#F5E0FF"></path><path d="M16 14 C16.88 17.12 16.88 17.12 20 18 C16.88 18.88 16.88 18.88 16 22 C15.12 18.88 15.12 18.88 12 18 C15.12 17.12 15.12 17.12 16 14 Z" fill="#C9A7F5"></path><path d="M45 21 C45.66 23.34 45.66 23.34 48 24 C45.66 24.66 45.66 24.66 45 27 C44.34 24.66 44.34 24.66 42 24 C44.34 23.34 44.34 23.34 45 21 Z" fill="#F5E0FF"></path><path d="M12 52.6 C12.748 55.252 12.748 55.252 15.4 56 C12.748 56.748 12.748 56.748 12 59.4 C11.252 56.748 11.252 56.748 8.6 56 C11.252 55.252 11.252 55.252 12 52.6 Z" fill="#C9A7F5"></path><path d="M46 51.6 C46.968 55.032 46.968 55.032 50.4 56 C46.968 56.968 46.968 56.968 46 60.4 C45.032 56.968 45.032 56.968 41.6 56 C45.032 55.032 45.032 55.032 46 51.6 Z" fill="#C9A7F5"></path><path d="M25 67 C25.66 69.34 25.66 69.34 28 70 C25.66 70.66 25.66 70.66 25 73 C24.34 70.66 24.34 70.66 22 70 C24.34 69.34 24.34 69.34 25 67 Z" fill="#F5E0FF"></path><path d="M42 9.8 C42.484 11.516 42.484 11.516 44.2 12 C42.484 12.484 42.484 12.484 42 14.2 C41.516 12.484 41.516 12.484 39.8 12 C41.516 11.516 41.516 11.516 42 9.8 Z" fill="#C9A7F5"></path><circle cx="24" cy="28" r="1.2" fill="#F5E0FF" opacity=".9"></circle><circle cx="40" cy="42" r="1.2" fill="#C9A7F5" opacity=".9"></circle><circle cx="16" cy="40" r="1" fill="#F5E0FF" opacity=".7"></circle><circle cx="36" cy="62" r="1.2" fill="#F5E0FF" opacity=".8"></circle><circle cx="50" cy="70" r="1" fill="#C9A7F5" opacity=".7"></circle><rect x="2" y="2" width="56" height="80" rx="9" fill="none" stroke="#8E5FC7" stroke-width="3"></rect></svg>