<svg xmlns="http://www.w3.org/2000/svg" viewBox="0 0 48 48" width="48" height="48"><path d="M24 43 C14.5 40 7.8 31.5 9 22.8 C10 16.2 16.4 13.6 24 16 C31.6 13.6 38 16.2 39 22.8 C40.2 31.5 33.5 40 24 43 Z" fill="#F0455C"></path><path d="M12.8 24.5 C13.2 30 16 34.6 20.2 37.4" stroke="#FF8CA0" stroke-width="2.6" fill="none" stroke-linecap="round" opacity=".85"></path><path d="M24 15.5 C19.5 12 14.8 12.2 12.6 15.2 C16.6 17 20.6 17.2 24 15.5 Z" fill="#5FA84C"></path><path d="M24 15.5 C28.5 12 33.2 12.2 35.4 15.2 C31.4 17 27.4 17.2 24 15.5 Z" fill="#4C8C3B"></path><path d="M24 16 C23 12.5 23.2 9.5 24.5 7" stroke="#4C8C3B" stroke-width="2.4" fill="none" stroke-linecap="round"></path><ellipse cx="15.5" cy="24" rx=".95" ry="1.35" fill="#FFE9A8"></ellipse><ellipse cx="24" cy="21.5" rx=".95" ry="1.35" fill="#FFE9A8"></ellipse><ellipse cx="32.5" cy="24" rx=".95" ry="1.35" fill="#FFE9A8"></ellipse><ellipse cx="19" cy="30" rx=".95" ry="1.35" fill="#FFE9A8"></ellipse><ellipse cx="29" cy="30" rx=".95" ry="1.35" fill="#FFE9A8"></ellipse><ellipse cx="24" cy="36" rx=".95" ry="1.35" fill="#FFE9A8"></ellipse><ellipse cx="16.5" cy="33.5" rx=".95" ry="1.35" fill="#FFE9A8"></ellipse><ellipse cx="31.5" cy="33.5" rx=".95" ry="1.35" fill="#FFE9A8"></ellipse></svg>