<svg xmlns="http://www.w3.org/2000/svg" viewBox="0 0 48 48" width="48" height="48"><path d="M24 14 C24 11 24 9.5 24 8" stroke="#6B4A2B" stroke-width="2.4" stroke-linecap="round" fill="none"></path><ellipse cx="17.5" cy="10.5" rx="5.6" ry="3.1" fill="#4C8C3B" transform="rotate(24 17.5 10.5)"></ellipse><ellipse cx="30.5" cy="9.5" rx="6.4" ry="3.5" fill="#5FA84C" transform="rotate(-22 30.5 9.5)"></ellipse><path d="M26 11.2 L35.2 7.8" stroke="#3F8F4F" stroke-width="1.2" stroke-linecap="round"></path><circle cx="24" cy="27" r="14" fill="#F4941E"></circle><path d="M11.6 22.5 A13.4 13.4 0 0 1 30 14.4 C22 13.5 15 16.5 11.6 22.5 Z" fill="#FFB84D"></path><ellipse cx="16.8" cy="19.6" rx="2.6" ry="1.8" fill="#fff" opacity=".55" transform="rotate(-32 16.8 19.6)"></ellipse><circle cx="29" cy="31" r=".95" fill="#DD7F0F" opacity=".5"></circle><circle cx="32.5" cy="27.5" r=".95" fill="#DD7F0F" opacity=".5"></circle><circle cx="26" cy="34.5" r=".95" fill="#DD7F0F" opacity=".5"></circle><circle cx="31.5" cy="33" r=".95" fill="#DD7F0F" opacity=".5"></circle><circle cx="34" cy="30.5" r=".95" fill="#DD7F0F" opacity=".5"></circle><circle cx="28" cy="28" r=".95" fill="#DD7F0F" opacity=".5"></circle></svg>