<svg xmlns="http://www.w3.org/2000/svg" viewBox="0 0 72 72" width="72" height="72"><circle cx="36" cy="3" r="4" fill="#FF6F5A"></circle><circle cx="52.5" cy="7.4" r="4" fill="#FF6F5A"></circle><circle cx="64.6" cy="19.5" r="4" fill="#FF6F5A"></circle><circle cx="69" cy="36" r="4" fill="#FF6F5A"></circle><circle cx="64.6" cy="52.5" r="4" fill="#FF6F5A"></circle><circle cx="52.5" cy="64.6" r="4" fill="#FF6F5A"></circle><circle cx="36" cy="69" r="4" fill="#FF6F5A"></circle><circle cx="19.5" cy="64.6" r="4" fill="#FF6F5A"></circle><circle cx="7.4" cy="52.5" r="4" fill="#FF6F5A"></circle><circle cx="3" cy="36" r="4" fill="#FF6F5A"></circle><circle cx="7.4" cy="19.5" r="4" fill="#FF6F5A"></circle><circle cx="19.5" cy="7.4" r="4" fill="#FF6F5A"></circle><circle cx="44.8" cy="3.2" r="2.4" fill="#F0A93B"></circle><circle cx="60" cy="12" r="2.4" fill="#F0A93B"></circle><circle cx="68.8" cy="27.2" r="2.4" fill="#F0A93B"></circle><circle cx="68.8" cy="44.8" r="2.4" fill="#F0A93B"></circle><circle cx="60" cy="60" r="2.4" fill="#F0A93B"></circle><circle cx="44.8" cy="68.8" r="2.4" fill="#F0A93B"></circle><circle cx="27.2" cy="68.8" r="2.4" fill="#F0A93B"></circle><circle cx="12" cy="60" r="2.4" fill="#F0A93B"></circle><circle cx="3.2" cy="44.8" r="2.4" fill="#F0A93B"></circle><circle cx="3.2" cy="27.2" r="2.4" fill="#F0A93B"></circle><circle cx="12" cy="12" r="2.4" fill="#F0A93B"></circle><circle cx="27.2" cy="3.2" r="2.4" fill="#F0A93B"></circle><circle cx="36" cy="36" r="30" fill="none" stroke="#E14B3B" stroke-width="7"></circle><circle cx="43.8" cy="7" r="1.6" fill="#FFD9A0"></circle><circle cx="57.2" cy="14.8" r="1.6" fill="#FFD9A0"></circle><circle cx="65" cy="28.2" r="1.6" fill="#FFD9A0"></circle><circle cx="65" cy="43.8" r="1.6" fill="#FFD9A0"></circle><circle cx="57.2" cy="57.2" r="1.6" fill="#FFD9A0"></circle><circle cx="43.8" cy="65" r="1.6" fill="#FFD9A0"></circle><circle cx="28.2" cy="65" r="1.6" fill="#FFD9A0"></circle><circle cx="14.8" cy="57.2" r="1.6" fill="#FFD9A0"></circle><circle cx="7" cy="43.8" r="1.6" fill="#FFD9A0"></circle><circle cx="7" cy="28.2" r="1.6" fill="#FFD9A0"></circle><circle cx="14.8" cy="14.8" r="1.6" fill="#FFD9A0"></circle><circle cx="28.2" cy="7" r="1.6" fill="#FFD9A0"></circle></svg>