<svg xmlns="http://www.w3.org/2000/svg" viewBox="0 0 72 72" width="72" height="72"><circle cx="36" cy="36" r="30" fill="none" stroke="#F3E7CE" stroke-width="8"></circle><circle cx="36" cy="36" r="33.8" fill="none" stroke="#E3D2B0" stroke-width="1.2"></circle><circle cx="36" cy="36" r="26.2" fill="none" stroke="#E3D2B0" stroke-width="1.2"></circle><path d="M34 5.199999999999999 L35.6 7.6 L34 10 L32.4 7.6 Z" fill="#E14B3B" transform="rotate(26 34 7.6)"></path><circle cx="55.3" cy="13" r="1.9" fill="#2F9C8F"></circle><rect x="60.4" y="17.299999999999997" width="3.4" height="2.2" rx=".6" fill="#F0A93B" transform="rotate(111 62.1 18.4)"></rect><path d="M64.1 38.5 L65.69999999999999 40.9 L64.1 43.3 L62.49999999999999 40.9 Z" fill="#8E5FC7" transform="rotate(130 64.1 40.9)"></path><circle cx="63" cy="49.2" r="1.9" fill="#E14B3B"></circle><rect x="45.099999999999994" y="64.5" width="3.4" height="2.2" rx=".6" fill="#2F9C8F" transform="rotate(215 46.8 65.6)"></rect><path d="M38 62.00000000000001 L39.6 64.4 L38 66.80000000000001 L36.4 64.4 Z" fill="#F0A93B" transform="rotate(206 38 64.4)"></path><circle cx="16.7" cy="59" r="1.9" fill="#8E5FC7"></circle><rect x="8.200000000000001" y="52.5" width="3.4" height="2.2" rx=".6" fill="#E14B3B" transform="rotate(291 9.9 53.6)"></rect><path d="M7.9 28.700000000000003 L9.5 31.1 L7.9 33.5 L6.300000000000001 31.1 Z" fill="#2F9C8F" transform="rotate(310 7.9 31.1)"></path><circle cx="9" cy="22.8" r="1.9" fill="#F0A93B"></circle><rect x="23.5" y="5.300000000000001" width="3.4" height="2.2" rx=".6" fill="#8E5FC7" transform="rotate(395 25.2 6.4)"></rect></svg>