<svg xmlns="http://www.w3.org/2000/svg" viewBox="0 0 72 72" width="72" height="72"><circle cx="36" cy="36" r="30" fill="none" stroke="#C9BFAE" stroke-width="2.4"></circle><circle cx="36" cy="6" r="4.4" fill="#E14B3B"></circle><circle cx="34.7" cy="4.7" r="1.2" fill="#FFF" opacity=".55"></circle><circle cx="51" cy="10" r="4.4" fill="#F0A93B"></circle><circle cx="49.7" cy="8.7" r="1.2" fill="#FFF" opacity=".55"></circle><circle cx="62" cy="21" r="4.4" fill="#2F9C8F"></circle><circle cx="60.7" cy="19.7" r="1.2" fill="#FFF" opacity=".55"></circle><circle cx="66" cy="36" r="4.4" fill="#8E5FC7"></circle><circle cx="64.7" cy="34.7" r="1.2" fill="#FFF" opacity=".55"></circle><circle cx="62" cy="51" r="4.4" fill="#E14B3B"></circle><circle cx="60.7" cy="49.7" r="1.2" fill="#FFF" opacity=".55"></circle><circle cx="51" cy="62" r="4.4" fill="#F0A93B"></circle><circle cx="49.7" cy="60.7" r="1.2" fill="#FFF" opacity=".55"></circle><circle cx="36" cy="66" r="4.4" fill="#2F9C8F"></circle><circle cx="34.7" cy="64.7" r="1.2" fill="#FFF" opacity=".55"></circle><circle cx="21" cy="62" r="4.4" fill="#8E5FC7"></circle><circle cx="19.7" cy="60.7" r="1.2" fill="#FFF" opacity=".55"></circle><circle cx="10" cy="51" r="4.4" fill="#E14B3B"></circle><circle cx="8.7" cy="49.7" r="1.2" fill="#FFF" opacity=".55"></circle><circle cx="6" cy="36" r="4.4" fill="#F0A93B"></circle><circle cx="4.7" cy="34.7" r="1.2" fill="#FFF" opacity=".55"></circle><circle cx="10" cy="21" r="4.4" fill="#2F9C8F"></circle><circle cx="8.7" cy="19.7" r="1.2" fill="#FFF" opacity=".55"></circle><circle cx="21" cy="10" r="4.4" fill="#8E5FC7"></circle><circle cx="19.7" cy="8.7" r="1.2" fill="#FFF" opacity=".55"></circle></svg>