<svg xmlns="http://www.w3.org/2000/svg" viewBox="0 0 72 72" width="72" height="72"><path d="M36 -1.7000000000000002 L38 2.5 L36 6.7 L34 2.5 Z" fill="#F0C96B"></path><path d="M52.8 2.8 L54.8 7 L52.8 11.2 L50.8 7 Z" fill="#F0C96B" transform="rotate(30 52.8 7)"></path><path d="M65 15.100000000000001 L67 19.3 L65 23.5 L63 19.3 Z" fill="#F0C96B" transform="rotate(60 65 19.3)"></path><path d="M69.5 31.8 L71.5 36 L69.5 40.2 L67.5 36 Z" fill="#F0C96B" transform="rotate(90 69.5 36)"></path><path d="M65 48.599999999999994 L67 52.8 L65 57 L63 52.8 Z" fill="#F0C96B" transform="rotate(120 65 52.8)"></path><path d="M52.8 60.8 L54.8 65 L52.8 69.2 L50.8 65 Z" fill="#F0C96B" transform="rotate(150 52.8 65)"></path><path d="M36 65.3 L38 69.5 L36 73.7 L34 69.5 Z" fill="#F0C96B" transform="rotate(180 36 69.5)"></path><path d="M19.3 60.8 L21.3 65 L19.3 69.2 L17.3 65 Z" fill="#F0C96B" transform="rotate(210 19.3 65)"></path><path d="M7 48.599999999999994 L9 52.8 L7 57 L5 52.8 Z" fill="#F0C96B" transform="rotate(240 7 52.8)"></path><path d="M2.5 31.8 L4.5 36 L2.5 40.2 L0.5 36 Z" fill="#F0C96B" transform="rotate(270 2.5 36)"></path><path d="M7 15 L9 19.2 L7 23.4 L5 19.2 Z" fill="#F0C96B" transform="rotate(300 7 19.2)"></path><path d="M19.2 2.8 L21.2 7 L19.2 11.2 L17.2 7 Z" fill="#F0C96B" transform="rotate(330 19.2 7)"></path><circle cx="36" cy="36" r="30" fill="none" stroke="#C9962A" stroke-width="7"></circle><circle cx="36" cy="6" r="1.9" fill="#E14B3B"></circle><circle cx="62" cy="51" r="1.9" fill="#E14B3B"></circle><circle cx="10" cy="51" r="1.9" fill="#E14B3B"></circle><circle cx="62" cy="21" r="1.9" fill="#2F9C8F"></circle><circle cx="36" cy="66" r="1.9" fill="#2F9C8F"></circle><circle cx="10" cy="21" r="1.9" fill="#2F9C8F"></circle><circle cx="36" cy="36" r="26.8" fill="none" stroke="#A87718" stroke-width="1.2"></circle></svg>