<svg xmlns="http://www.w3.org/2000/svg" viewBox="0 0 72 72" width="72" height="72"><circle cx="36" cy="36" r="30" fill="none" stroke="#8E5FC7" stroke-width="7"></circle><path d="M46.3 4.4 C47.047999999999995 7.052 47.047999999999995 7.052 49.699999999999996 7.8 C47.047999999999995 8.548 47.047999999999995 8.548 46.3 11.2 C45.552 8.548 45.552 8.548 42.9 7.8 C45.552 7.052 45.552 7.052 46.3 4.4 Z" fill="#F5E0FF"></path><path d="M65.5 28.400000000000002 C66.028 30.272000000000002 66.028 30.272000000000002 67.9 30.8 C66.028 31.328 66.028 31.328 65.5 33.2 C64.972 31.328 64.972 31.328 63.1 30.8 C64.972 30.272000000000002 64.972 30.272000000000002 65.5 28.400000000000002 Z" fill="#C9A7F5"></path><path d="M57.2 54.2 C57.86 56.540000000000006 57.86 56.540000000000006 60.2 57.2 C57.86 57.86 57.86 57.86 57.2 60.2 C56.540000000000006 57.86 56.540000000000006 57.86 54.2 57.2 C56.540000000000006 56.540000000000006 56.540000000000006 56.540000000000006 57.2 54.2 Z" fill="#F5E0FF"></path><path d="M25.7 61.6 C26.272 63.628 26.272 63.628 28.3 64.2 C26.272 64.772 26.272 64.772 25.7 66.8 C25.128 64.772 25.128 64.772 23.099999999999998 64.2 C25.128 63.628 25.128 63.628 25.7 61.6 Z" fill="#C9A7F5"></path><path d="M7.8 42.9 C8.548 45.552 8.548 45.552 11.2 46.3 C8.548 47.047999999999995 8.548 47.047999999999995 7.8 49.699999999999996 C7.052 47.047999999999995 7.052 47.047999999999995 4.4 46.3 C7.052 45.552 7.052 45.552 7.8 42.9 Z" fill="#F5E0FF"></path><path d="M13 14.299999999999999 C13.528 16.172 13.528 16.172 15.4 16.7 C13.528 17.227999999999998 13.528 17.227999999999998 13 19.099999999999998 C12.472 17.227999999999998 12.472 17.227999999999998 10.6 16.7 C12.472 16.172 12.472 16.172 13 14.299999999999999 Z" fill="#C9A7F5"></path><circle cx="38.6" cy="6.1" r="0.9" fill="#E8D5FF" opacity=".8"></circle><circle cx="53.2" cy="11.4" r="0.9" fill="#E8D5FF" opacity=".8"></circle><circle cx="63.2" cy="23.3" r="0.9" fill="#E8D5FF" opacity=".8"></circle><circle cx="65.9" cy="38.6" r="0.9" fill="#E8D5FF" opacity=".8"></circle><circle cx="60.6" cy="53.2" r="0.9" fill="#E8D5FF" opacity=".8"></circle><circle cx="48.7" cy="63.2" r="0.9" fill="#E8D5FF" opacity=".8"></circle><circle cx="33.4" cy="65.9" r="0.9" fill="#E8D5FF" opacity=".8"></circle><circle cx="18.8" cy="60.6" r="0.9" fill="#E8D5FF" opacity=".8"></circle><circle cx="8.8" cy="48.7" r="0.9" fill="#E8D5FF" opacity=".8"></circle><circle cx="6.1" cy="33.4" r="0.9" fill="#E8D5FF" opacity=".8"></circle><circle cx="11.4" cy="18.8" r="0.9" fill="#E8D5FF" opacity=".8"></circle><circle cx="23.3" cy="8.8" r="0.9" fill="#E8D5FF" opacity=".8"></circle></svg>