<svg xmlns="http://www.w3.org/2000/svg" viewBox="0 0 72 72" width="72" height="72"><circle cx="36" cy="36" r="30" fill="none" stroke="#5FB9D8" stroke-width="7"></circle><path d="M36 2.6 L38.6 6 L36 9.4 L33.4 6 Z" fill="#BFE9F5"></path><path d="M57.2 11.4 L59.800000000000004 14.8 L57.2 18.2 L54.6 14.8 Z" fill="#BFE9F5" transform="rotate(45 57.2 14.8)"></path><path d="M66 32.6 L68.6 36 L66 39.4 L63.4 36 Z" fill="#BFE9F5" transform="rotate(90 66 36)"></path><path d="M57.2 53.800000000000004 L59.800000000000004 57.2 L57.2 60.6 L54.6 57.2 Z" fill="#BFE9F5" transform="rotate(135 57.2 57.2)"></path><path d="M36 62.6 L38.6 66 L36 69.4 L33.4 66 Z" fill="#BFE9F5" transform="rotate(180 36 66)"></path><path d="M14.8 53.800000000000004 L17.400000000000002 57.2 L14.8 60.6 L12.200000000000001 57.2 Z" fill="#BFE9F5" transform="rotate(225 14.8 57.2)"></path><path d="M6 32.6 L8.6 36 L6 39.4 L3.4 36 Z" fill="#BFE9F5" transform="rotate(270 6 36)"></path><path d="M14.8 11.4 L17.400000000000002 14.8 L14.8 18.2 L12.200000000000001 14.8 Z" fill="#BFE9F5" transform="rotate(315 14.8 14.8)"></path><path d="M48.5 2.9000000000000004 C48.94 4.46 48.94 4.46 50.5 4.9 C48.94 5.340000000000001 48.94 5.340000000000001 48.5 6.9 C48.06 5.340000000000001 48.06 5.340000000000001 46.5 4.9 C48.06 4.46 48.06 4.46 48.5 2.9000000000000004 Z" fill="#FFF" opacity="0.95"></path><path d="M67.1 46.7 C67.496 48.104 67.496 48.104 68.89999999999999 48.5 C67.496 48.896 67.496 48.896 67.1 50.3 C66.704 48.896 66.704 48.896 65.3 48.5 C66.704 48.104 66.704 48.104 67.1 46.7 Z" fill="#FFF" opacity="0.95"></path><path d="M23.5 65.1 C23.94 66.66 23.94 66.66 25.5 67.1 C23.94 67.53999999999999 23.94 67.53999999999999 23.5 69.1 C23.06 67.53999999999999 23.06 67.53999999999999 21.5 67.1 C23.06 66.66 23.06 66.66 23.5 65.1 Z" fill="#FFF" opacity="0.95"></path><path d="M4.9 21.7 C5.296 23.104 5.296 23.104 6.7 23.5 C5.296 23.896 5.296 23.896 4.9 25.3 C4.5040000000000004 23.896 4.5040000000000004 23.896 3.1000000000000005 23.5 C4.5040000000000004 23.104 4.5040000000000004 23.104 4.9 21.7 Z" fill="#FFF" opacity="0.95"></path><circle cx="36" cy="36" r="26.7" fill="none" stroke="#3E88B0" stroke-width="1.2"></circle></svg>