<svg xmlns="http://www.w3.org/2000/svg" viewBox="0 0 72 72" width="72" height="72"><circle cx="36" cy="36" r="30" fill="none" stroke="#2B2258" stroke-width="9"></circle><path d="M36 2.8 C36.704 5.296 36.704 5.296 39.2 6 C36.704 6.704 36.704 6.704 36 9.2 C35.296 6.704 35.296 6.704 32.8 6 C35.296 5.296 35.296 5.296 36 2.8 Z" fill="#F0C96B"></path><path d="M60.6 16.6 C61.084 18.316 61.084 18.316 62.800000000000004 18.8 C61.084 19.284000000000002 61.084 19.284000000000002 60.6 21 C60.116 19.284000000000002 60.116 19.284000000000002 58.4 18.8 C60.116 18.316 60.116 18.316 60.6 16.6 Z" fill="#F0C96B"></path><path d="M65 41 C65.616 43.184 65.616 43.184 67.8 43.8 C65.616 44.416 65.616 44.416 65 46.599999999999994 C64.384 44.416 64.384 44.416 62.2 43.8 C64.384 43.184 64.384 43.184 65 41 Z" fill="#F0C96B"></path><path d="M46.3 62.2 C46.739999999999995 63.760000000000005 46.739999999999995 63.760000000000005 48.3 64.2 C46.739999999999995 64.64 46.739999999999995 64.64 46.3 66.2 C45.86 64.64 45.86 64.64 44.3 64.2 C45.86 63.760000000000005 45.86 63.760000000000005 46.3 62.2 Z" fill="#F0C96B"></path><path d="M21 59 C21.66 61.34 21.66 61.34 24 62 C21.66 62.66 21.66 62.66 21 65 C20.34 62.66 20.34 62.66 18 62 C20.34 61.34 20.34 61.34 21 59 Z" fill="#F0C96B"></path><path d="M6.1 36.4 C6.584 38.116 6.584 38.116 8.3 38.6 C6.584 39.084 6.584 39.084 6.1 40.800000000000004 C5.616 39.084 5.616 39.084 3.8999999999999995 38.6 C5.616 38.116 5.616 38.116 6.1 36.4 Z" fill="#F0C96B"></path><path d="M14.8 12.200000000000001 C15.372 14.228000000000002 15.372 14.228000000000002 17.400000000000002 14.8 C15.372 15.372 15.372 15.372 14.8 17.400000000000002 C14.228000000000002 15.372 14.228000000000002 15.372 12.200000000000001 14.8 C14.228000000000002 14.228000000000002 14.228000000000002 14.228000000000002 14.8 12.200000000000001 Z" fill="#F0C96B"></path><circle cx="42.2" cy="6.7" r="0.8" fill="#F5E6C8" opacity=".8"></circle><circle cx="54.4" cy="12.3" r="0.8" fill="#F5E6C8" opacity=".8"></circle><circle cx="62.8" cy="22.6" r="0.8" fill="#F5E6C8" opacity=".8"></circle><circle cx="66" cy="35.6" r="0.8" fill="#F5E6C8" opacity=".8"></circle><circle cx="63.2" cy="48.6" r="0.8" fill="#F5E6C8" opacity=".8"></circle><circle cx="55.1" cy="59.2" r="0.8" fill="#F5E6C8" opacity=".8"></circle><circle cx="43.1" cy="65.1" r="0.8" fill="#F5E6C8" opacity=".8"></circle><circle cx="29.8" cy="65.3" r="0.8" fill="#F5E6C8" opacity=".8"></circle><circle cx="17.6" cy="59.7" r="0.8" fill="#F5E6C8" opacity=".8"></circle><circle cx="9.2" cy="49.4" r="0.8" fill="#F5E6C8" opacity=".8"></circle><circle cx="6" cy="36.4" r="0.8" fill="#F5E6C8" opacity=".8"></circle><circle cx="8.8" cy="23.4" r="0.8" fill="#F5E6C8" opacity=".8"></circle><circle cx="16.9" cy="12.8" r="0.8" fill="#F5E6C8" opacity=".8"></circle><circle cx="28.9" cy="6.9" r="0.8" fill="#F5E6C8" opacity=".8"></circle></svg>