<svg xmlns="http://www.w3.org/2000/svg" viewBox="0 0 72 72" width="72" height="72"><circle cx="36" cy="36" r="32.5" fill="none" stroke="#2F7A3E" stroke-width="4.5"></circle><circle cx="36" cy="36" r="29.8" fill="none" stroke="#CFEBB4" stroke-width="2.2"></circle><circle cx="36" cy="36" r="27.5" fill="none" stroke="#F25C6E" stroke-width="4.5"></circle><path d="M44.5 7.9 L45.5 9.8 L44.5 11.700000000000001 L43.5 9.8 Z" fill="#4A2318" transform="rotate(18 44.5 9.8)"></path><path d="M58.2 17.900000000000002 L59.2 19.8 L58.2 21.7 L57.2 19.8 Z" fill="#4A2318" transform="rotate(54 58.2 19.8)"></path><path d="M63.5 34.1 L64.5 36 L63.5 37.9 L62.5 36 Z" fill="#4A2318" transform="rotate(90 63.5 36)"></path><path d="M58.2 50.300000000000004 L59.2 52.2 L58.2 54.1 L57.2 52.2 Z" fill="#4A2318" transform="rotate(126 58.2 52.2)"></path><path d="M44.5 60.300000000000004 L45.5 62.2 L44.5 64.10000000000001 L43.5 62.2 Z" fill="#4A2318" transform="rotate(162 44.5 62.2)"></path><path d="M27.5 60.300000000000004 L28.5 62.2 L27.5 64.10000000000001 L26.5 62.2 Z" fill="#4A2318" transform="rotate(198 27.5 62.2)"></path><path d="M13.8 50.300000000000004 L14.8 52.2 L13.8 54.1 L12.8 52.2 Z" fill="#4A2318" transform="rotate(234 13.8 52.2)"></path><path d="M8.5 34.1 L9.5 36 L8.5 37.9 L7.5 36 Z" fill="#4A2318" transform="rotate(270 8.5 36)"></path><path d="M13.8 17.900000000000002 L14.8 19.8 L13.8 21.7 L12.8 19.8 Z" fill="#4A2318" transform="rotate(306 13.8 19.8)"></path><path d="M27.5 7.9 L28.5 9.8 L27.5 11.700000000000001 L26.5 9.8 Z" fill="#4A2318" transform="rotate(342 27.5 9.8)"></path></svg>