<svg xmlns="http://www.w3.org/2000/svg" viewBox="0 0 72 72" width="72" height="72"><circle cx="36" cy="36" r="30" fill="none" stroke="#7A3020" stroke-width="9"></circle><path d="M36 2.8 L38.4 6 L36 9.2 L33.6 6 Z" fill="#E8A61E"></path><path d="M53.6 8.5 L56 11.7 L53.6 14.899999999999999 L51.2 11.7 Z" fill="#2F9C8F" transform="rotate(36 53.6 11.7)"></path><path d="M64.5 23.5 L66.9 26.7 L64.5 29.9 L62.1 26.7 Z" fill="#E8A61E" transform="rotate(72 64.5 26.7)"></path><path d="M64.5 42.099999999999994 L66.9 45.3 L64.5 48.5 L62.1 45.3 Z" fill="#2F9C8F" transform="rotate(108 64.5 45.3)"></path><path d="M53.6 57.099999999999994 L56 60.3 L53.6 63.5 L51.2 60.3 Z" fill="#E8A61E" transform="rotate(144 53.6 60.3)"></path><path d="M36 62.8 L38.4 66 L36 69.2 L33.6 66 Z" fill="#2F9C8F" transform="rotate(180 36 66)"></path><path d="M18.4 57.099999999999994 L20.799999999999997 60.3 L18.4 63.5 L15.999999999999998 60.3 Z" fill="#E8A61E" transform="rotate(216 18.4 60.3)"></path><path d="M7.5 42.099999999999994 L9.9 45.3 L7.5 48.5 L5.1 45.3 Z" fill="#2F9C8F" transform="rotate(252 7.5 45.3)"></path><path d="M7.5 23.5 L9.9 26.7 L7.5 29.9 L5.1 26.7 Z" fill="#E8A61E" transform="rotate(288 7.5 26.7)"></path><path d="M18.4 8.5 L20.799999999999997 11.7 L18.4 14.899999999999999 L15.999999999999998 11.7 Z" fill="#2F9C8F" transform="rotate(324 18.4 11.7)"></path><circle cx="45.3" cy="7.5" r="1" fill="#F5E6C8"></circle><circle cx="60.3" cy="18.4" r="1" fill="#F5E6C8"></circle><circle cx="66" cy="36" r="1" fill="#F5E6C8"></circle><circle cx="60.3" cy="53.6" r="1" fill="#F5E6C8"></circle><circle cx="45.3" cy="64.5" r="1" fill="#F5E6C8"></circle><circle cx="26.7" cy="64.5" r="1" fill="#F5E6C8"></circle><circle cx="11.7" cy="53.6" r="1" fill="#F5E6C8"></circle><circle cx="6" cy="36" r="1" fill="#F5E6C8"></circle><circle cx="11.7" cy="18.4" r="1" fill="#F5E6C8"></circle><circle cx="26.7" cy="7.5" r="1" fill="#F5E6C8"></circle><circle cx="36" cy="36" r="34.2" fill="none" stroke="#5C2416" stroke-width="1.2"></circle><circle cx="36" cy="36" r="25.8" fill="none" stroke="#5C2416" stroke-width="1.2"></circle></svg>