<svg xmlns="http://www.w3.org/2000/svg" viewBox="0 0 72 72" width="72" height="72"><circle cx="36" cy="36" r="30" fill="none" stroke="#B93424" stroke-width="6.5"></circle><path d="M36 0 L38.4 3.4 L36 6.8 L33.6 3.4 Z" fill="#FF6F5A"></path><path d="M59.1 9.5 L61.5 12.9 L59.1 16.3 L56.7 12.9 Z" fill="#FF6F5A" transform="rotate(45 59.1 12.9)"></path><path d="M68.6 32.6 L71 36 L68.6 39.4 L66.19999999999999 36 Z" fill="#FF6F5A" transform="rotate(90 68.6 36)"></path><path d="M59.1 55.7 L61.5 59.1 L59.1 62.5 L56.7 59.1 Z" fill="#FF6F5A" transform="rotate(135 59.1 59.1)"></path><path d="M36 65.19999999999999 L38.4 68.6 L36 72 L33.6 68.6 Z" fill="#FF6F5A" transform="rotate(180 36 68.6)"></path><path d="M12.9 55.7 L15.3 59.1 L12.9 62.5 L10.5 59.1 Z" fill="#FF6F5A" transform="rotate(225 12.9 59.1)"></path><path d="M3.4 32.6 L5.8 36 L3.4 39.4 L1 36 Z" fill="#FF6F5A" transform="rotate(270 3.4 36)"></path><path d="M12.9 9.5 L15.3 12.9 L12.9 16.3 L10.5 12.9 Z" fill="#FF6F5A" transform="rotate(315 12.9 12.9)"></path><circle cx="47.1" cy="9.2" r="1.6" fill="#5FA84C"></circle><circle cx="62.8" cy="24.9" r="1.6" fill="#5FA84C"></circle><circle cx="62.8" cy="47.1" r="1.6" fill="#5FA84C"></circle><circle cx="47.1" cy="62.8" r="1.6" fill="#5FA84C"></circle><circle cx="24.9" cy="62.8" r="1.6" fill="#5FA84C"></circle><circle cx="9.2" cy="47.1" r="1.6" fill="#5FA84C"></circle><circle cx="9.2" cy="24.9" r="1.6" fill="#5FA84C"></circle><circle cx="24.9" cy="9.2" r="1.6" fill="#5FA84C"></circle></svg>