<svg xmlns="http://www.w3.org/2000/svg" viewBox="0 0 72 72" width="72" height="72"><circle cx="36" cy="4.5" r="5.2" fill="#FF9FB2"></circle><circle cx="51.8" cy="8.7" r="5.2" fill="#FF9FB2"></circle><circle cx="63.3" cy="20.3" r="5.2" fill="#FF9FB2"></circle><circle cx="67.5" cy="36" r="5.2" fill="#FF9FB2"></circle><circle cx="63.3" cy="51.8" r="5.2" fill="#FF9FB2"></circle><circle cx="51.8" cy="63.3" r="5.2" fill="#FF9FB2"></circle><circle cx="36" cy="67.5" r="5.2" fill="#FF9FB2"></circle><circle cx="20.3" cy="63.3" r="5.2" fill="#FF9FB2"></circle><circle cx="8.7" cy="51.8" r="5.2" fill="#FF9FB2"></circle><circle cx="4.5" cy="36" r="5.2" fill="#FF9FB2"></circle><circle cx="8.7" cy="20.2" r="5.2" fill="#FF9FB2"></circle><circle cx="20.2" cy="8.7" r="5.2" fill="#FF9FB2"></circle><circle cx="44.4" cy="4.6" r="2" fill="#FFD9E0"></circle><circle cx="59" cy="13" r="2" fill="#FFD9E0"></circle><circle cx="67.4" cy="27.6" r="2" fill="#FFD9E0"></circle><circle cx="67.4" cy="44.4" r="2" fill="#FFD9E0"></circle><circle cx="59" cy="59" r="2" fill="#FFD9E0"></circle><circle cx="44.4" cy="67.4" r="2" fill="#FFD9E0"></circle><circle cx="27.6" cy="67.4" r="2" fill="#FFD9E0"></circle><circle cx="13" cy="59" r="2" fill="#FFD9E0"></circle><circle cx="4.6" cy="44.4" r="2" fill="#FFD9E0"></circle><circle cx="4.6" cy="27.6" r="2" fill="#FFD9E0"></circle><circle cx="13" cy="13" r="2" fill="#FFD9E0"></circle><circle cx="27.6" cy="4.6" r="2" fill="#FFD9E0"></circle><circle cx="36" cy="36" r="27.2" fill="none" stroke="#F7C042" stroke-width="4.2"></circle></svg>