<svg xmlns="http://www.w3.org/2000/svg" viewBox="0 0 72 72" width="72" height="72"><circle cx="36" cy="36" r="30" fill="none" stroke="#E8A61E" stroke-width="8.5"></circle><path d="M38.9 4.3L38.9 7.7L36 9.4L33.1 7.7L33.1 4.3L36 2.6Z" fill="none" stroke="#B96F12" stroke-width="1.4"></path><path d="M58.2 11.3L58.2 14.7L55.3 16.4L52.4 14.7L52.4 11.3L55.3 9.6Z" fill="none" stroke="#B96F12" stroke-width="1.4"></path><path d="M68.4 29.1L68.4 32.5L65.5 34.2L62.6 32.5L62.6 29.1L65.5 27.4Z" fill="none" stroke="#B96F12" stroke-width="1.4"></path><path d="M64.9 49.3L64.9 52.7L62 54.4L59.1 52.7L59.1 49.3L62 47.6Z" fill="none" stroke="#B96F12" stroke-width="1.4"></path><path d="M49.2 62.5L49.2 65.9L46.3 67.6L43.4 65.9L43.4 62.5L46.3 60.8Z" fill="none" stroke="#B96F12" stroke-width="1.4"></path><path d="M28.6 62.5L28.6 65.9L25.7 67.6L22.8 65.9L22.8 62.5L25.7 60.8Z" fill="none" stroke="#B96F12" stroke-width="1.4"></path><path d="M12.9 49.3L12.9 52.7L10 54.4L7.1 52.7L7.1 49.3L10 47.6Z" fill="none" stroke="#B96F12" stroke-width="1.4"></path><path d="M9.4 29.1L9.4 32.5L6.5 34.2L3.6 32.5L3.6 29.1L6.5 27.4Z" fill="none" stroke="#B96F12" stroke-width="1.4"></path><path d="M19.6 11.3L19.6 14.7L16.7 16.4L13.8 14.7L13.8 11.3L16.7 9.6Z" fill="none" stroke="#B96F12" stroke-width="1.4"></path><circle cx="46.3" cy="7.8" r="1" fill="#FFD98A"></circle><circle cx="62" cy="21" r="1" fill="#FFD98A"></circle><circle cx="65.5" cy="41.2" r="1" fill="#FFD98A"></circle><circle cx="55.3" cy="59" r="1" fill="#FFD98A"></circle><circle cx="36" cy="66" r="1" fill="#FFD98A"></circle><circle cx="16.7" cy="59" r="1" fill="#FFD98A"></circle><circle cx="6.5" cy="41.2" r="1" fill="#FFD98A"></circle><circle cx="10" cy="21" r="1" fill="#FFD98A"></circle><circle cx="25.7" cy="7.8" r="1" fill="#FFD98A"></circle></svg>