<svg xmlns="http://www.w3.org/2000/svg" viewBox="0 0 72 72" width="72" height="72"><circle cx="36" cy="36" r="30" fill="none" stroke="#D9973F" stroke-width="9"></circle><circle cx="36" cy="36" r="30" fill="none" stroke="#C9862E" stroke-width="1"></circle><ellipse cx="33" cy="7.8" rx="1.9" ry="1" fill="#FFF0D0" transform="rotate(34 33 7.8)"></ellipse><ellipse cx="51.2" cy="10.2" rx="1.9" ry="1" fill="#FFF0D0" transform="rotate(70.5 51.2 10.2)"></ellipse><ellipse cx="55.9" cy="11.4" rx="1.9" ry="1" fill="#FFF0D0" transform="rotate(79 55.9 11.4)"></ellipse><ellipse cx="63.5" cy="28.9" rx="1.9" ry="1" fill="#FFF0D0" transform="rotate(115.5 63.5 28.9)"></ellipse><ellipse cx="65.8" cy="32.9" rx="1.9" ry="1" fill="#FFF0D0" transform="rotate(124 65.8 32.9)"></ellipse><ellipse cx="63.2" cy="52" rx="1.9" ry="1" fill="#FFF0D0" transform="rotate(160.5 63.2 52)"></ellipse><ellipse cx="58.1" cy="53.9" rx="1.9" ry="1" fill="#FFF0D0" transform="rotate(169 58.1 53.9)"></ellipse><ellipse cx="43.5" cy="65" rx="1.9" ry="1" fill="#FFF0D0" transform="rotate(205.5 43.5 65)"></ellipse><ellipse cx="39.3" cy="67.4" rx="1.9" ry="1" fill="#FFF0D0" transform="rotate(214 39.3 67.4)"></ellipse><ellipse cx="21.6" cy="60.5" rx="1.9" ry="1" fill="#FFF0D0" transform="rotate(250.5 21.6 60.5)"></ellipse><ellipse cx="17.1" cy="59.3" rx="1.9" ry="1" fill="#FFF0D0" transform="rotate(259 17.1 59.3)"></ellipse><ellipse cx="5.4" cy="43.9" rx="1.9" ry="1" fill="#FFF0D0" transform="rotate(295.5 5.4 43.9)"></ellipse><ellipse cx="7.8" cy="39" rx="1.9" ry="1" fill="#FFF0D0" transform="rotate(304 7.8 39)"></ellipse><ellipse cx="10.2" cy="20.8" rx="1.9" ry="1" fill="#FFF0D0" transform="rotate(340.5 10.2 20.8)"></ellipse><ellipse cx="11.4" cy="16.1" rx="1.9" ry="1" fill="#FFF0D0" transform="rotate(349 11.4 16.1)"></ellipse><ellipse cx="28.9" cy="8.5" rx="1.9" ry="1" fill="#FFF0D0" transform="rotate(385.5 28.9 8.5)"></ellipse></svg>